<svg xmlns="http://www.w3.org/2000/svg" width="640" height="480" viewBox="0 0 640 480">
  <defs>
    <linearGradient id="fill" x1="320" y1="18" x2="320" y2="462" gradientUnits="userSpaceOnUse">
      <stop stop-color="#FFFDF8"/>
      <stop offset="1" stop-color="#FFEED9"/>
    </linearGradient>
    <linearGradient id="header" x1="320" y1="24" x2="320" y2="150" gradientUnits="userSpaceOnUse">
      <stop stop-color="#B7F3FF"/>
      <stop offset="1" stop-color="#88DFFF"/>
    </linearGradient>
    <filter id="shadow" x="-10%" y="-10%" width="120%" height="140%">
      <feDropShadow dx="0" dy="18" stdDeviation="14" flood-color="#436E84" flood-opacity="0.2"/>
    </filter>
  </defs>
  <g filter="url(#shadow)">
    <rect x="20" y="20" width="600" height="440" rx="48" fill="url(#fill)" stroke="#69C7EE" stroke-width="8"/>
    <rect x="44" y="42" width="552" height="110" rx="30" fill="url(#header)"/>
    <rect x="44" y="168" width="552" height="42" rx="21" fill="#FFFFFF" opacity="0.42"/>
    <path d="M108 14c16 0 28 12 28 28v6H80v-6c0-16 12-28 28-28z" fill="#FFD25B" stroke="#F29A2C" stroke-width="6"/>
    <path d="M532 14c16 0 28 12 28 28v6h-56v-6c0-16 12-28 28-28z" fill="#FFAAC9" stroke="#F27AA4" stroke-width="6"/>
    <circle cx="94" cy="102" r="10" fill="#FFF5C7" opacity="0.76"/>
    <circle cx="548" cy="88" r="7" fill="#FDFEFF" opacity="0.84"/>
  </g>
</svg>
