<svg width="1920" height="1080" viewBox="0 0 1920 1080" fill="none" xmlns="http://www.w3.org/2000/svg">
  <rect width="1920" height="1080" fill="#DFF4FF"/>
  <rect x="26" y="26" width="1868" height="1028" rx="40" fill="#F7FCFF" stroke="#BFE1EF" stroke-width="4"/>
  <rect x="64" y="64" width="1264" height="952" rx="36" fill="#EDF9FF"/>
  <rect x="112" y="112" width="1168" height="856" rx="34" fill="#F5FDFF" stroke="#C5E4F0" stroke-width="4"/>
  <text x="696" y="164" text-anchor="middle" font-size="34" font-family="Arial, sans-serif" fill="#4B6B7D">GAMEPLAY SCENE LAYOUT BOARD</text>

  <rect x="210" y="208" width="972" height="716" rx="44" fill="#8FD6F4" stroke="#5DAFCE" stroke-width="8"/>
  <rect x="250" y="248" width="892" height="636" rx="32" fill="#BDEBFF" stroke="#72C5E8" stroke-width="4"/>
  <text x="696" y="566" text-anchor="middle" font-size="52" font-weight="700" font-family="Arial, sans-serif" fill="#477089">8x8 BOARD AREA</text>
  <text x="696" y="620" text-anchor="middle" font-size="28" font-family="Arial, sans-serif" fill="#5F889B">Board readability first. Background stays quiet.</text>

  <image href="../animals/rabbit_block.png" x="314" y="312" width="112" height="112"/>
  <image href="../animals/bear_block.png" x="438" y="312" width="112" height="112"/>
  <image href="../animals/cat_block.png" x="562" y="312" width="112" height="112"/>
  <image href="../animals/chick_block.png" x="686" y="312" width="112" height="112"/>
  <image href="../animals/frog_block.png" x="810" y="312" width="112" height="112"/>

  <rect x="1362" y="64" width="492" height="952" rx="34" fill="#F7FDFF" stroke="#C2E1EE" stroke-width="4"/>
  <text x="1608" y="124" text-anchor="middle" font-size="34" font-weight="700" font-family="Arial, sans-serif" fill="#4B6B7D">HUD COLUMN</text>

  <rect x="1408" y="168" width="400" height="154" rx="28" fill="#FFF8DB" stroke="#F1C95D" stroke-width="6"/>
  <text x="1450" y="226" font-size="30" font-weight="700" font-family="Arial, sans-serif" fill="#5C6C7B">Stage 1</text>
  <text x="1450" y="268" font-size="42" font-weight="700" font-family="Arial, sans-serif" fill="#E08C33">12 MOVES</text>

  <rect x="1408" y="350" width="400" height="260" rx="28" fill="#FFFFFF" stroke="#C8E4F0" stroke-width="6"/>
  <text x="1450" y="402" font-size="30" font-weight="700" font-family="Arial, sans-serif" fill="#5C6C7B">Goals</text>
  <image href="../animals/rabbit_block.png" x="1450" y="432" width="84" height="84"/>
  <text x="1558" y="484" font-size="32" font-weight="700" font-family="Arial, sans-serif" fill="#4F7080">10 / 10</text>
  <image href="../animals/frog_block.png" x="1450" y="522" width="84" height="84"/>
  <text x="1558" y="574" font-size="32" font-weight="700" font-family="Arial, sans-serif" fill="#4F7080">0 / 6 bush</text>

  <rect x="1408" y="640" width="400" height="132" rx="28" fill="#FFFFFF" stroke="#C8E4F0" stroke-width="6"/>
  <text x="1450" y="700" font-size="30" font-weight="700" font-family="Arial, sans-serif" fill="#5C6C7B">Status / Hint</text>
  <text x="1450" y="742" font-size="24" font-family="Arial, sans-serif" fill="#708A97">Short hint only. No long paragraph.</text>

  <rect x="1408" y="804" width="190" height="104" rx="28" fill="#FFD95A" stroke="#E4B23E" stroke-width="6"/>
  <text x="1503" y="867" text-anchor="middle" font-size="34" font-weight="700" font-family="Arial, sans-serif" fill="#5B4A20">RETRY</text>
  <rect x="1618" y="804" width="190" height="104" rx="28" fill="#FF9FB6" stroke="#E87D97" stroke-width="6"/>
  <text x="1713" y="867" text-anchor="middle" font-size="34" font-weight="700" font-family="Arial, sans-serif" fill="#6E3147">PAUSE</text>

  <rect x="1408" y="926" width="400" height="50" rx="18" fill="#EAF7FD"/>
  <text x="1608" y="960" text-anchor="middle" font-size="22" font-family="Arial, sans-serif" fill="#6E8796">Toy-like cards, same world as animal blocks</text>
</svg>
