<svg xmlns="http://www.w3.org/2000/svg" width="1600" height="900" viewBox="0 0 1600 900">
  <defs>
    <linearGradient id="sky" x1="0" y1="0" x2="0" y2="1">
      <stop offset="0%" stop-color="#eef8df"/>
      <stop offset="100%" stop-color="#bfd7a8"/>
    </linearGradient>
    <linearGradient id="mist" x1="0" y1="0" x2="1" y2="1">
      <stop offset="0%" stop-color="#ffffff" stop-opacity="0.5"/>
      <stop offset="100%" stop-color="#ffffff" stop-opacity="0"/>
    </linearGradient>
  </defs>
  <rect width="1600" height="900" fill="url(#sky)"/>
  <path d="M0 650 C220 560 420 570 620 640 C790 700 950 710 1120 650 C1280 595 1430 585 1600 640 L1600 900 L0 900 Z" fill="#89a86f"/>
  <path d="M0 730 C190 680 350 690 520 745 C720 810 920 815 1120 760 C1280 715 1440 700 1600 740 L1600 900 L0 900 Z" fill="#62845d"/>
  <path d="M140 0 L300 0 L240 900 L20 900 Z" fill="#567448" opacity="0.36"/>
  <path d="M1380 0 L1540 0 L1580 900 L1310 900 Z" fill="#547149" opacity="0.32"/>
  <ellipse cx="1030" cy="180" rx="300" ry="96" fill="url(#mist)" opacity="0.8"/>
  <ellipse cx="520" cy="250" rx="260" ry="88" fill="url(#mist)" opacity="0.62"/>
  <circle cx="1260" cy="170" r="74" fill="#fff6c7" opacity="0.72"/>
  <path d="M260 570 C350 470 470 430 610 430 C705 430 795 450 870 505" fill="none" stroke="#c79c61" stroke-width="18" stroke-linecap="round" opacity="0.5"/>
  <path d="M350 835 C380 760 470 710 560 718 C660 727 720 782 760 835" fill="none" stroke="#42563d" stroke-width="24" stroke-linecap="round" opacity="0.28"/>
</svg>
