<svg width="256" height="256" viewBox="0 0 256 256" fill="none" xmlns="http://www.w3.org/2000/svg">
<defs>
  <linearGradient id="tile" x1="34" y1="24" x2="218" y2="228" gradientUnits="userSpaceOnUse">
    <stop stop-color="#FFD8A2"/>
    <stop offset="1" stop-color="#FF9D53"/>
  </linearGradient>
  <linearGradient id="face" x1="128" y1="70" x2="128" y2="190" gradientUnits="userSpaceOnUse">
    <stop stop-color="#FFF8EC"/>
    <stop offset="1" stop-color="#FFE0BA"/>
  </linearGradient>
</defs>
<rect x="24" y="28" width="208" height="208" rx="64" fill="#A9602F" opacity="0.28"/>
<rect x="20" y="20" width="216" height="208" rx="64" fill="url(#tile)"/>
<rect x="30" y="30" width="196" height="80" rx="32" fill="#FFFFFF" opacity="0.24"/>
<circle cx="84" cy="84" r="26" fill="#8C4F29"/>
<circle cx="172" cy="84" r="26" fill="#8C4F29"/>
<circle cx="84" cy="84" r="13" fill="#FFD3B3"/>
<circle cx="172" cy="84" r="13" fill="#FFD3B3"/>
<circle cx="128" cy="136" r="64" fill="url(#face)"/>
<path d="M74 128C74 98 97 82 128 82C159 82 182 98 182 128V140H74V128Z" fill="#BC7541"/>
<ellipse cx="105" cy="132" rx="10" ry="13" fill="#433A61"/>
<ellipse cx="151" cy="132" rx="10" ry="13" fill="#433A61"/>
<ellipse cx="102" cy="128" rx="3.5" ry="4.5" fill="#FFFFFF"/>
<ellipse cx="148" cy="128" rx="3.5" ry="4.5" fill="#FFFFFF"/>
<ellipse cx="128" cy="152" rx="22" ry="18" fill="#FFF6EF"/>
<ellipse cx="128" cy="149" rx="8" ry="6" fill="#8C4F29"/>
<path d="M118 162C121 166 124 168 128 168C132 168 135 166 138 162" stroke="#6A3C20" stroke-width="4" stroke-linecap="round"/>
<path d="M128 154V160" stroke="#6A3C20" stroke-width="4" stroke-linecap="round"/>
<circle cx="90" cy="154" r="8" fill="#FFB07B" opacity="0.65"/>
<circle cx="166" cy="154" r="8" fill="#FFB07B" opacity="0.65"/>
</svg>
