<svg width="256" height="256" viewBox="0 0 256 256" fill="none" xmlns="http://www.w3.org/2000/svg">
<defs>
  <linearGradient id="tile" x1="36" y1="24" x2="216" y2="228" gradientUnits="userSpaceOnUse">
    <stop stop-color="#FFF7A5"/>
    <stop offset="1" stop-color="#FFC94D"/>
  </linearGradient>
  <linearGradient id="face" x1="128" y1="70" x2="128" y2="190" gradientUnits="userSpaceOnUse">
    <stop stop-color="#FFFBE5"/>
    <stop offset="1" stop-color="#FFE37A"/>
  </linearGradient>
</defs>
<rect x="24" y="28" width="208" height="208" rx="64" fill="#D29C1F" opacity="0.26"/>
<rect x="20" y="20" width="216" height="208" rx="64" fill="url(#tile)"/>
<rect x="30" y="30" width="196" height="82" rx="32" fill="#FFFFFF" opacity="0.24"/>
<path d="M128 66L142 92H114L128 66Z" fill="#FF9F4B"/>
<circle cx="128" cy="136" r="66" fill="url(#face)"/>
<path d="M76 124C76 98 99 84 128 84C157 84 180 98 180 124V140H76V124Z" fill="#FFF3A2"/>
<ellipse cx="104" cy="132" rx="10" ry="13" fill="#433A61"/>
<ellipse cx="152" cy="132" rx="10" ry="13" fill="#433A61"/>
<ellipse cx="101" cy="128" rx="3.5" ry="4.5" fill="#FFFFFF"/>
<ellipse cx="149" cy="128" rx="3.5" ry="4.5" fill="#FFFFFF"/>
<path d="M128 146L144 154H112L128 146Z" fill="#FF944D"/>
<path d="M128 154V161" stroke="#C86C2D" stroke-width="4" stroke-linecap="round"/>
<path d="M118 164C121 168 124 170 128 170C132 170 135 168 138 164" stroke="#C86C2D" stroke-width="4" stroke-linecap="round"/>
<circle cx="90" cy="152" r="8" fill="#FFD872" opacity="0.62"/>
<circle cx="166" cy="152" r="8" fill="#FFD872" opacity="0.62"/>
</svg>
