<svg width="256" height="256" viewBox="0 0 256 256" fill="none" xmlns="http://www.w3.org/2000/svg">
<defs>
  <linearGradient id="tile" x1="34" y1="24" x2="220" y2="228" gradientUnits="userSpaceOnUse">
    <stop stop-color="#B7FFB1"/>
    <stop offset="1" stop-color="#4FD58D"/>
  </linearGradient>
  <linearGradient id="face" x1="128" y1="74" x2="128" y2="192" gradientUnits="userSpaceOnUse">
    <stop stop-color="#F0FFE9"/>
    <stop offset="1" stop-color="#B7F48A"/>
  </linearGradient>
</defs>
<rect x="24" y="28" width="208" height="208" rx="64" fill="#2C915C" opacity="0.28"/>
<rect x="20" y="20" width="216" height="208" rx="64" fill="url(#tile)"/>
<rect x="30" y="30" width="196" height="82" rx="32" fill="#FFFFFF" opacity="0.24"/>
<circle cx="88" cy="86" r="22" fill="#6BDA76"/>
<circle cx="168" cy="86" r="22" fill="#6BDA76"/>
<circle cx="88" cy="86" r="11" fill="#F7FFF3"/>
<circle cx="168" cy="86" r="11" fill="#F7FFF3"/>
<circle cx="128" cy="138" r="64" fill="url(#face)"/>
<path d="M76 128C76 101 98 86 128 86C158 86 180 101 180 128V142H76V128Z" fill="#7BE689"/>
<ellipse cx="104" cy="132" rx="9" ry="12" fill="#433A61"/>
<ellipse cx="152" cy="132" rx="9" ry="12" fill="#433A61"/>
<ellipse cx="101" cy="128" rx="3.5" ry="4.5" fill="#FFFFFF"/>
<ellipse cx="149" cy="128" rx="3.5" ry="4.5" fill="#FFFFFF"/>
<path d="M108 156C116 164 121 166 128 166C135 166 140 164 148 156" stroke="#2E7248" stroke-width="5" stroke-linecap="round"/>
<ellipse cx="92" cy="154" rx="9" ry="7" fill="#8AF0A1" opacity="0.55"/>
<ellipse cx="164" cy="154" rx="9" ry="7" fill="#8AF0A1" opacity="0.55"/>
</svg>
